HIERARCHY
ROOT Hips
{
	OFFSET 0.000000 71.427986 0.000000
	CHANNELS 6 Xposition Yposition Zposition Xrotation Yrotation Zrotation
	JOINT Pelvis
	{
		OFFSET 0.000000 0.000000 0.000000
		CHANNELS 3 Xrotation Yrotation Zrotation
		JOINT LeftUpLeg
		{
			OFFSET 6.797100 -2.508499 -1.318700
			CHANNELS 3 Xrotation Yrotation Zrotation
			JOINT LeftLeg
			{
				OFFSET 0.069008 -29.241863 0.690200
				CHANNELS 3 Xrotation Yrotation Zrotation
				JOINT LeftFoot
				{
					OFFSET -0.069008 -29.568123 -0.266800
					CHANNELS 3 Xrotation Yrotation Zrotation
					JOINT LeftToeBase
					{
						OFFSET 3.145500 -8.631000 16.059900
						CHANNELS 3 Xrotation Yrotation Zrotation
						End Site
						{
							OFFSET 0.000000 18.501587 0.000000
						}
					}
				}
			}
			JOINT Left_ShortSleeve
			{
				OFFSET 0.265923 -10.480953 1.153800
				CHANNELS 3 Xrotation Yrotation Zrotation
				End Site
				{
					OFFSET 1.725763 19.823879 0.000000
				}
			}
		}
		JOINT RightUpLeg
		{
			OFFSET -6.797100 -2.508499 -1.318700
			CHANNELS 3 Xrotation Yrotation Zrotation
			JOINT RightLeg
			{
				OFFSET -0.082453 -29.241932 0.688000
				CHANNELS 3 Xrotation Yrotation Zrotation
				JOINT RightFoot
				{
					OFFSET 0.082453 -29.568058 -0.264600
					CHANNELS 3 Xrotation Yrotation Zrotation
					JOINT RightToeBase
					{
						OFFSET -3.115300 -8.682800 16.113400
						CHANNELS 3 Xrotation Yrotation Zrotation
						End Site
						{
							OFFSET 0.000000 18.567114 0.000000
						}
					}
				}
			}
			JOINT Right_ShortSleeve
			{
				OFFSET -0.265923 -10.480953 1.153800
				CHANNELS 3 Xrotation Yrotation Zrotation
				End Site
				{
					OFFSET -1.725766 19.823910 0.000000
				}
			}
		}
	}
	JOINT Spine
	{
		OFFSET 0.000000 13.368103 0.470500
		CHANNELS 3 Xrotation Yrotation Zrotation
		JOINT Spine1
		{
			OFFSET 0.147000 13.837402 0.538800
			CHANNELS 3 Xrotation Yrotation Zrotation
			JOINT Spine2
			{
				OFFSET 0.168000 16.242897 -1.435500
				CHANNELS 3 Xrotation Yrotation Zrotation
				JOINT Neck
				{
					OFFSET 0.217200 18.631500 -1.679100
					CHANNELS 3 Xrotation Yrotation Zrotation
					JOINT Head
					{
						OFFSET 0.000000 6.599396 1.385900
						CHANNELS 3 Xrotation Yrotation Zrotation
						JOINT Hat
						{
							OFFSET -0.532200 27.220596 -10.096100
							CHANNELS 3 Xrotation Yrotation Zrotation
							End Site
							{
								OFFSET 0.000000 22.029861 0.000000
							}
						}
						JOINT HairD
						{
							OFFSET -10.777400 17.437393 -1.325900
							CHANNELS 3 Xrotation Yrotation Zrotation
							JOINT HairD1
							{
								OFFSET -3.290299 -11.051193 1.062200
								CHANNELS 3 Xrotation Yrotation Zrotation
								End Site
								{
									OFFSET 0.000000 11.579437 0.000000
								}
							}
						}
						JOINT HairB
						{
							OFFSET -10.777400 17.437393 1.467900
							CHANNELS 3 Xrotation Yrotation Zrotation
							JOINT HairB1
							{
								OFFSET -1.561200 -12.956299 3.590200
								CHANNELS 3 Xrotation Yrotation Zrotation
								End Site
								{
									OFFSET 0.000000 13.534866 0.000000
								}
							}
						}
						JOINT HairA
						{
							OFFSET 9.713100 17.437393 1.467900
							CHANNELS 3 Xrotation Yrotation Zrotation
							JOINT HairA1
							{
								OFFSET 1.561200 -12.956299 3.590200
								CHANNELS 3 Xrotation Yrotation Zrotation
								End Site
								{
									OFFSET 0.000000 13.534866 0.000000
								}
							}
						}
						JOINT HairC
						{
							OFFSET 9.713100 17.437393 -1.325900
							CHANNELS 3 Xrotation Yrotation Zrotation
							JOINT HairC1
							{
								OFFSET 3.290300 -11.051193 1.062200
								CHANNELS 3 Xrotation Yrotation Zrotation
								End Site
								{
									OFFSET 0.000000 11.579437 0.000000
								}
							}
						}
					}
				}
				JOINT LeftShoulder
				{
					OFFSET 5.101800 15.108002 -2.763700
					CHANNELS 3 Xrotation Yrotation Zrotation
					JOINT LeftArm
					{
						OFFSET 9.825497 2.506317 -1.597400
						CHANNELS 3 Xrotation Yrotation Zrotation
						JOINT LeftForeArm
						{
							OFFSET 21.966244 0.000000 0.000000
							CHANNELS 3 Xrotation Yrotation Zrotation
							JOINT LeftHand
							{
								OFFSET 33.879036 0.000000 0.000000
								CHANNELS 3 Xrotation Yrotation Zrotation
								JOINT LeftHandThumb1
								{
									OFFSET 6.715286 -2.359680 3.363841
									CHANNELS 3 Xrotation Yrotation Zrotation
									JOINT LeftHandThumb2
									{
										OFFSET 2.507072 -1.447464 1.447461
										CHANNELS 3 Xrotation Yrotation Zrotation
										JOINT LeftHandThumb3
										{
											OFFSET 2.898338 -1.673355 1.673357
											CHANNELS 3 Xrotation Yrotation Zrotation
											End Site
											{
												OFFSET -0.295959 3.727692 -0.131651
											}
										}
									}
								}
								JOINT LeftHandIndex1
								{
									OFFSET 14.190811 -0.254547 3.840278
									CHANNELS 3 Xrotation Yrotation Zrotation
									JOINT LeftHandIndex2
									{
										OFFSET 3.551727 0.000000 -0.000000
										CHANNELS 3 Xrotation Yrotation Zrotation
										JOINT LeftHandIndex3
										{
											OFFSET 2.894196 0.000000 0.000000
											CHANNELS 3 Xrotation Yrotation Zrotation
											End Site
											{
												OFFSET -1.000603 2.690872 0.366626
											}
										}
									}
								}
								JOINT LeftHandMiddle1
								{
									OFFSET 13.776489 0.000000 0.000000
									CHANNELS 3 Xrotation Yrotation Zrotation
									JOINT LeftHandMiddle2
									{
										OFFSET 3.438232 0.000000 0.000000
										CHANNELS 3 Xrotation Yrotation Zrotation
										JOINT LeftHandMiddle3
										{
											OFFSET 3.691551 0.000000 0.000000
											CHANNELS 3 Xrotation Yrotation Zrotation
											End Site
											{
												OFFSET -1.082298 3.499527 0.457670
											}
										}
									}
								}
								JOINT LeftHandRing1
								{
									OFFSET 13.966164 -0.268127 -3.067488
									CHANNELS 3 Xrotation Yrotation Zrotation
									JOINT LeftHandRing2
									{
										OFFSET 3.162567 0.000000 0.000000
										CHANNELS 3 Xrotation Yrotation Zrotation
										JOINT LeftHandRing3
										{
											OFFSET 3.324348 0.000000 0.000000
											CHANNELS 3 Xrotation Yrotation Zrotation
											End Site
											{
												OFFSET -0.861900 3.184998 0.405154
											}
										}
									}
								}
								JOINT LeftHandPinky1
								{
									OFFSET 13.131393 -0.168503 -5.746925
									CHANNELS 3 Xrotation Yrotation Zrotation
									JOINT LeftHandPinky2
									{
										OFFSET 2.849182 0.000000 0.000000
										CHANNELS 3 Xrotation Yrotation Zrotation
										JOINT LeftHandPinky3
										{
											OFFSET 2.805038 0.000000 0.000000
											CHANNELS 3 Xrotation Yrotation Zrotation
											End Site
											{
												OFFSET -0.882500 2.642609 0.325652
											}
										}
									}
								}
							}
							JOINT Left_Sleeve
							{
								OFFSET 6.592125 -0.646545 0.805568
								CHANNELS 3 Xrotation Yrotation Zrotation
								End Site
								{
									OFFSET -0.000179 20.275787 -0.000000
								}
							}
						}
					}
				}
				JOINT RightShoulder
				{
					OFFSET -5.731700 15.108002 -2.763700
					CHANNELS 3 Xrotation Yrotation Zrotation
					JOINT RightArm
					{
						OFFSET -9.825497 2.506317 -1.597400
						CHANNELS 3 Xrotation Yrotation Zrotation
						JOINT RightForeArm
						{
							OFFSET -21.966242 0.000000 0.000000
							CHANNELS 3 Xrotation Yrotation Zrotation
							JOINT RightHand
							{
								OFFSET -33.879032 0.000000 0.000000
								CHANNELS 3 Xrotation Yrotation Zrotation
								JOINT RightHandThumb1
								{
									OFFSET -6.715286 -2.359680 3.363841
									CHANNELS 3 Xrotation Yrotation Zrotation
									JOINT RightHandThumb2
									{
										OFFSET -2.507072 -1.447464 1.447461
										CHANNELS 3 Xrotation Yrotation Zrotation
										JOINT RightHandThumb3
										{
											OFFSET -2.898338 -1.673355 1.673357
											CHANNELS 3 Xrotation Yrotation Zrotation
											End Site
											{
												OFFSET 0.295959 3.727692 -0.131651
											}
										}
									}
								}
								JOINT RightHandIndex1
								{
									OFFSET -14.190811 -0.254547 3.840278
									CHANNELS 3 Xrotation Yrotation Zrotation
									JOINT RightHandIndex2
									{
										OFFSET -3.551727 0.000000 -0.000000
										CHANNELS 3 Xrotation Yrotation Zrotation
										JOINT RightHandIndex3
										{
											OFFSET -2.894196 0.000000 0.000000
											CHANNELS 3 Xrotation Yrotation Zrotation
											End Site
											{
												OFFSET 1.000603 2.690872 0.366626
											}
										}
									}
								}
								JOINT RightHandMiddle1
								{
									OFFSET -13.776489 0.000000 0.000000
									CHANNELS 3 Xrotation Yrotation Zrotation
									JOINT RightHandMiddle2
									{
										OFFSET -3.438232 0.000000 0.000000
										CHANNELS 3 Xrotation Yrotation Zrotation
										JOINT RightHandMiddle3
										{
											OFFSET -3.691551 0.000000 0.000000
											CHANNELS 3 Xrotation Yrotation Zrotation
											End Site
											{
												OFFSET 1.082298 3.499527 0.457670
											}
										}
									}
								}
								JOINT RightHandRing1
								{
									OFFSET -13.966164 -0.268127 -3.067488
									CHANNELS 3 Xrotation Yrotation Zrotation
									JOINT RightHandRing2
									{
										OFFSET -3.162567 0.000000 0.000000
										CHANNELS 3 Xrotation Yrotation Zrotation
										JOINT RightHandRing3
										{
											OFFSET -3.324348 0.000000 0.000000
											CHANNELS 3 Xrotation Yrotation Zrotation
											End Site
											{
												OFFSET 0.861900 3.184998 0.405154
											}
										}
									}
								}
								JOINT RightHandPinky1
								{
									OFFSET -13.131393 -0.168503 -5.746925
									CHANNELS 3 Xrotation Yrotation Zrotation
									JOINT RightHandPinky2
									{
										OFFSET -2.849182 0.000000 0.000000
										CHANNELS 3 Xrotation Yrotation Zrotation
										JOINT RightHandPinky3
										{
											OFFSET -2.805038 0.000000 0.000000
											CHANNELS 3 Xrotation Yrotation Zrotation
											End Site
											{
												OFFSET 0.882500 2.642609 0.325652
											}
										}
									}
								}
							}
							JOINT Right_Sleeve
							{
								OFFSET -6.592125 -0.646545 0.805568
								CHANNELS 3 Xrotation Yrotation Zrotation
								End Site
								{
									OFFSET 0.000179 20.275787 -0.000000
								}
							}
						}
					}
				}
				JOINT Bind_Right_JacketString
				{
					OFFSET -3.534800 11.969597 7.200700
					CHANNELS 3 Xrotation Yrotation Zrotation
					JOINT Bind_Right_JacketString1
					{
						OFFSET -0.319900 -6.102600 2.794100
						CHANNELS 3 Xrotation Yrotation Zrotation
						End Site
						{
							OFFSET 0.000000 6.719452 0.000000
						}
					}
				}
				JOINT Bind_Left_JacketString
				{
					OFFSET 2.904800 11.969597 7.200700
					CHANNELS 3 Xrotation Yrotation Zrotation
					JOINT Bind_Left_JacketString1
					{
						OFFSET 0.364800 -5.904503 3.186800
						CHANNELS 3 Xrotation Yrotation Zrotation
						End Site
						{
							OFFSET 0.000000 6.719513 0.000000
						}
					}
				}
				JOINT HairE
				{
					OFFSET 5.915200 17.612701 -11.592200
					CHANNELS 3 Xrotation Yrotation Zrotation
					JOINT HairE1
					{
						OFFSET 0.289200 -7.171898 -1.284500
						CHANNELS 3 Xrotation Yrotation Zrotation
						End Site
						{
							OFFSET 0.000000 7.291756 0.000000
						}
					}
				}
				JOINT HairF
				{
					OFFSET -0.864800 17.612701 -11.592200
					CHANNELS 3 Xrotation Yrotation Zrotation
					JOINT HairF1
					{
						OFFSET 0.000000 -14.087097 -2.127501
						CHANNELS 3 Xrotation Yrotation Zrotation
						End Site
						{
							OFFSET 0.000000 14.246841 0.000000
						}
					}
				}
				JOINT HairG
				{
					OFFSET -8.087700 17.612701 -11.592200
					CHANNELS 3 Xrotation Yrotation Zrotation
					JOINT HairG1
					{
						OFFSET -0.293600 -6.081398 -0.910100
						CHANNELS 3 Xrotation Yrotation Zrotation
						End Site
						{
							OFFSET 0.000000 6.156120 0.000000
						}
					}
				}
			}
		}
	}
	JOINT Pouch
	{
		OFFSET 0.000000 4.394501 10.847300
		CHANNELS 3 Xrotation Yrotation Zrotation
		End Site
		{
			OFFSET 0.000000 21.880577 0.000000
		}
	}
	JOINT Bag
	{
		OFFSET -13.229000 4.813004 -0.593300
		CHANNELS 3 Xrotation Yrotation Zrotation
		End Site
		{
			OFFSET 0.000000 21.880577 0.000000
		}
	}
	JOINT OccupyGuyFacialAnim_Joint
	{
		OFFSET 1.000000 -70.206398 -1.655000
		CHANNELS 3 Xrotation Yrotation Zrotation
		End Site
		{
			OFFSET 0.000000 21.880577 0.000000
		}
	}
}
MOTION
Frames: 4
Frame Time: 0.016667
-0.677864 68.565804 1.532429 5.019053 -13.966262 10.097328 -0.000000 0.000000 0.000000 -23.996565 -9.802298 -12.123075 15.262298 -5.596178 -6.780104 5.019499 -27.916230 7.108580 0.000000 -0.000000 -0.000000 -0.000001 -0.000000 -0.000001 1.289298 -15.436926 -12.755092 37.411811 4.154089 -5.514603 -19.938924 -2.775409 9.296970 -0.000000 0.000001 0.000000 -0.000001 0.000002 -0.000001 1.772970 4.586207 0.628677 5.177708 9.319219 2.133660 5.034878 9.321732 2.400950 -1.845153 -1.005208 -1.922220 -8.332132 -2.916352 -12.042396 0.000000 0.000000 -0.000000 0.000000 0.000000 -0.000000 0.000000 0.000000 -0.000000 0.000000 0.000000 -0.000000 0.000000 0.000000 -0.000000 0.000000 0.000000 -0.000000 0.000000 0.000000 -0.000000 0.000000 0.000000 -0.000000 0.000000 0.000000 -0.000000 0.683990 -0.873510 -14.226766 -18.744839 -25.288448 -72.307736 -0.000042 -68.920720 -0.000054 -36.056589 9.257022 42.116176 -10.930930 -6.748101 10.337270 -18.089362 8.879823 2.392697 -0.000001 -0.000000 -0.000001 5.890363 8.200083 -88.621800 6.193130 5.841077 -93.357648 -0.000001 -0.000002 -0.000002 7.765560 7.904043 -107.399493 4.299858 5.642377 -74.600801 0.000001 0.000002 0.000004 7.314705 8.035597 -105.794972 3.608018 5.405431 -67.422901 0.000000 0.000003 0.000003 10.390454 6.780251 -113.877128 1.747965 4.174849 -45.422175 -0.000001 -0.000002 0.000003 -0.000000 -0.000001 0.000001 -0.133326 13.109084 18.148142 -38.704944 64.841404 69.860254 0.000034 37.971450 -0.000020 -24.338580 -7.627334 -15.970099 17.912455 17.120559 -32.483560 12.694445 -52.014206 20.210858 0.000003 -0.000003 0.000000 0.276341 -8.899010 1.740161 5.888270 -4.491816 105.344207 -0.000001 -0.000000 -0.000002 4.166162 -8.600803 42.153206 7.050152 -3.996496 120.947132 -0.000001 -0.000001 -0.000001 -0.361107 -4.549252 57.044217 4.703206 -4.656945 90.567099 0.000000 0.000001 -0.000001 -5.324598 -0.292082 51.887291 3.524514 -4.517635 75.909247 -0.000000 0.000002 -0.000001 0.000001 0.000000 0.000000 0.000000 -0.000001 -0.000002 0.000002 -0.000000 -0.000000 0.000000 -0.000001 -0.000000 0.000000 -0.000001 -0.000000 0.000000 -0.000001 -0.000002 0.000002 -0.000000 -0.000000 0.000000 -0.000001 -0.000000 0.000000 -0.000001 -0.000000 0.000000 -0.000001 -0.000002 0.000002 -0.000000 -0.000000 -0.000000 0.000000 0.000000 -0.000000 0.000000 0.000000 -0.000000 0.000000 0.000000 
-0.669617 68.553566 1.526706 5.072510 -14.038612 9.895535 -0.000000 -0.000001 0.000000 -24.164535 -9.579968 -11.847767 15.656443 -5.805680 -6.874750 4.889168 -27.927684 7.219240 0.000000 0.000000 -0.000000 0.000001 -0.000003 -0.000001 1.723793 -15.503092 -12.538190 36.664954 4.390038 -5.316370 -20.105309 -2.749060 9.066058 -0.000002 -0.000000 0.000000 -0.000000 -0.000000 -0.000001 1.835685 4.684444 0.674970 5.160748 9.282537 2.112636 5.022808 9.284438 2.374294 -2.064538 -1.057513 -1.877890 -8.628698 -3.003488 -11.986656 -0.000000 0.000000 -0.000000 -0.000000 0.000000 -0.000000 -0.000000 0.000000 -0.000000 -0.000000 0.000000 -0.000000 -0.000000 0.000000 0.000000 -0.000000 0.000000 -0.000000 -0.000000 0.000000 0.000000 -0.000000 0.000000 -0.000000 -0.000000 0.000000 -0.000000 0.681857 -0.881330 -14.238700 -18.870669 -25.494070 -72.321800 -0.000062 -68.978012 -0.000062 -35.909716 8.762854 42.291831 -10.930937 -6.748124 10.337263 -18.089367 8.879820 2.392687 -0.000001 -0.000003 -0.000004 5.684046 8.194840 -88.397032 6.193733 5.841036 -93.363707 -0.000000 0.000000 -0.000004 7.765559 7.904047 -107.399500 4.299861 5.642374 -74.600781 0.000005 0.000000 0.000001 7.314698 8.035582 -105.794979 3.608014 5.405425 -67.422908 0.000003 0.000004 -0.000002 10.390448 6.780247 -113.877142 1.747965 4.174844 -45.422172 0.000002 0.000000 0.000003 0.000003 0.000000 -0.000001 -0.124891 13.084229 18.116887 -38.677971 64.587662 69.785067 0.000026 38.471580 -0.000015 -23.446981 -7.328095 -15.998979 17.912432 17.120552 -32.483563 12.694443 -52.014206 20.210859 -0.000000 -0.000001 0.000000 0.276347 -8.899018 1.740169 5.888272 -4.491817 105.344200 -0.000001 -0.000001 0.000003 4.166164 -8.600811 42.153230 7.050152 -3.996495 120.947132 0.000001 -0.000001 0.000001 -0.361095 -4.549250 57.044244 4.703205 -4.656943 90.567099 0.000001 -0.000000 -0.000000 -5.324610 -0.292100 51.887318 3.524512 -4.517635 75.909247 -0.000001 -0.000002 0.000007 0.000001 0.000001 0.000003 -0.000000 -0.000000 0.000001 0.000001 -0.000000 0.000000 -0.000000 -0.000000 0.000001 -0.000000 -0.000000 0.000001 -0.000000 -0.000000 0.000001 0.000001 -0.000000 0.000001 -0.000000 -0.000000 0.000001 -0.000000 -0.000000 0.000001 -0.000000 -0.000000 0.000001 0.000001 -0.000000 0.000001 -0.000000 -0.000001 0.000000 -0.000000 -0.000001 0.000000 -0.000000 -0.000001 0.000000 
-0.662158 68.541443 1.518866 5.129734 -14.108674 9.690958 0.000000 0.000000 0.000000 -24.339075 -9.379326 -11.568466 16.040585 -5.999177 -6.970015 4.763660 -27.938879 7.325598 -0.000000 0.000000 -0.000000 -0.000001 0.000000 -0.000000 2.188598 -15.565328 -12.312507 35.861789 4.654875 -5.100933 -20.266061 -2.743605 8.815103 -0.000000 0.000000 0.000000 0.000000 0.000002 -0.000000 1.896500 4.787668 0.730951 5.142800 9.248734 2.093727 5.009902 9.249995 2.349701 -2.293328 -1.110685 -1.843276 -8.922894 -3.110393 -11.930531 0.000000 0.000000 0.000001 0.000000 0.000000 0.000001 0.000000 0.000000 0.000001 0.000000 0.000000 0.000000 0.000000 0.000000 0.000000 0.000000 0.000000 0.000000 0.000000 0.000000 0.000000 0.000000 0.000000 0.000001 0.000000 0.000000 0.000001 0.679173 -0.891284 -14.251472 -19.028048 -25.737575 -72.345965 0.000036 -69.038685 0.000025 -35.733490 8.163554 42.501569 -10.930942 -6.748112 10.337262 -18.089367 8.879821 2.392684 0.000001 0.000002 -0.000003 5.440061 8.186739 -88.133387 6.194489 5.840973 -93.370878 0.000003 0.000000 -0.000002 7.765556 7.904041 -107.399500 4.299874 5.642372 -74.600808 0.000002 0.000001 -0.000003 7.314698 8.035590 -105.794979 3.608023 5.405425 -67.422881 -0.000002 0.000004 -0.000002 10.390443 6.780244 -113.877142 1.747968 4.174849 -45.422155 -0.000000 0.000001 0.000003 -0.000001 0.000001 -0.000001 -0.114675 13.054875 18.076912 -38.651860 64.286355 69.702859 -0.000008 39.069679 0.000000 -22.411428 -6.958794 -16.094361 17.912427 17.120561 -32.483529 12.694443 -52.014206 20.210863 -0.000001 0.000000 0.000002 0.276327 -8.899014 1.740188 5.888268 -4.491815 105.344200 0.000000 0.000001 0.000000 4.166152 -8.600800 42.153216 7.050154 -3.996494 120.947132 0.000002 -0.000001 0.000001 -0.361113 -4.549242 57.044234 4.703205 -4.656943 90.567099 -0.000000 -0.000000 -0.000001 -5.324607 -0.292078 51.887308 3.524514 -4.517635 75.909247 -0.000001 0.000000 -0.000001 -0.000002 -0.000001 -0.000003 0.000001 0.000000 -0.000002 0.000002 0.000000 -0.000002 0.000001 0.000000 -0.000001 0.000001 0.000000 -0.000001 0.000001 0.000000 -0.000002 0.000002 0.000000 -0.000002 0.000001 0.000000 -0.000001 0.000001 0.000000 -0.000001 0.000001 0.000000 -0.000002 0.000002 0.000000 -0.000002 0.000000 0.000000 0.000000 0.000000 0.000000 0.000000 0.000000 0.000000 0.000000 
-0.655266 68.529442 1.509384 5.189730 -14.177072 9.484419 -0.000000 0.000001 -0.000000 -24.515038 -9.199607 -11.276695 16.406382 -6.179099 -7.085401 4.652203 -27.949190 7.439650 0.000000 -0.000000 0.000000 -0.000000 0.000000 -0.000000 2.674731 -15.615069 -12.092353 35.017007 4.940659 -4.847813 -20.414443 -2.752195 8.541972 -0.000001 -0.000001 -0.000000 -0.000000 0.000001 -0.000001 1.955579 4.895253 0.795342 5.123977 9.217472 2.076670 4.996255 9.218046 2.326923 -2.529577 -1.164600 -1.816362 -9.215293 -3.233272 -11.874458 -0.000000 -0.000000 -0.000000 -0.000000 -0.000000 -0.000000 -0.000000 -0.000000 -0.000000 -0.000000 -0.000000 -0.000000 -0.000000 -0.000000 0.000000 -0.000000 -0.000000 -0.000000 -0.000000 -0.000000 0.000000 -0.000000 -0.000000 -0.000000 -0.000000 -0.000000 -0.000000 0.676443 -0.901440 -14.262933 -19.187219 -25.974199 -72.374952 -0.000066 -69.092684 -0.000087 -35.558764 7.571566 42.707592 -10.930928 -6.748105 10.337251 -18.089368 8.879819 2.392690 -0.000000 -0.000001 -0.000001 5.203262 8.176902 -87.878942 6.195196 5.840946 -93.377818 0.000001 0.000000 -0.000002 7.765558 7.904032 -107.399506 4.299867 5.642370 -74.600801 -0.000003 0.000001 0.000003 7.314691 8.035583 -105.794979 3.608015 5.405422 -67.422881 0.000002 0.000002 -0.000002 10.390453 6.780228 -113.877135 1.747959 4.174850 -45.422151 -0.000002 0.000000 0.000001 -0.000001 -0.000001 0.000000 -0.104594 13.026403 18.035934 -38.631017 63.992855 69.627932 0.000036 39.655368 -0.000024 -21.415148 -6.603390 -16.217244 17.912437 17.120571 -32.483540 12.694443 -52.014209 20.210864 -0.000000 -0.000002 -0.000001 0.276355 -8.899016 1.740160 5.888268 -4.491817 105.344200 0.000001 -0.000001 0.000002 4.166159 -8.600808 42.153213 7.050152 -3.996498 120.947132 0.000001 0.000000 -0.000001 -0.361103 -4.549251 57.044224 4.703207 -4.656945 90.567099 -0.000000 0.000000 -0.000003 -5.324599 -0.292086 51.887298 3.524514 -4.517634 75.909247 -0.000000 0.000001 0.000004 0.000000 -0.000000 -0.000001 -0.000002 0.000001 -0.000000 -0.000001 0.000001 -0.000001 -0.000002 0.000001 -0.000000 -0.000002 0.000001 -0.000000 -0.000002 0.000001 -0.000000 -0.000001 0.000001 -0.000000 -0.000002 0.000001 -0.000000 -0.000002 0.000001 -0.000000 -0.000002 0.000001 -0.000000 -0.000001 0.000001 -0.000000 -0.000000 0.000001 -0.000000 -0.000000 0.000001 -0.000000 -0.000000 0.000001 -0.000000 
